DataType=double
version=3
OpenSimVersion=4.5
endheader
time	ground_force_1_vx	ground_force_1_vy	ground_force_1_vz	ground_force_1_px	ground_force_1_py	ground_force_1_pz	ground_moment_1_mx	ground_moment_1_my	ground_moment_1_mz	ground_force_2_vx	ground_force_2_vy	ground_force_2_vz	ground_force_2_px	ground_force_2_py	ground_force_2_pz	ground_moment_2_mx	ground_moment_2_my	ground_moment_2_mz
1	-16.35087905	631.3358708	31.41930213	0.7793137241689195	0	0.4076707012251942	0	2.085925163744423	0	0	0	0	0.8089	0	0.745900015	0	0	0
1.005	-14.15825977	636.1067549000001	30.98255645	0.7740203659716176	0	0.4082178128477716	0	1.982715373409454	0	0	0	0	0.8089	0	0.745900015	0	0	0
1.01	-11.93606481	640.7377209	30.5801402	0.768690294746461	0	0.4087339422163581	0	1.923612317997212	0	0	0	0	0.8089	0	0.745900015	0	0	0
1.015	-9.737098667	645.335705	30.18411135	0.7635054035336448	0	0.4091681919845517	0	1.885030499054903	0	0	0	0	0.8089	0	0.745900015	0	0	0
1.02	-7.56787854	649.820118	29.9052474	0.758376309268985	0	0.4095265707629189	0	1.85563836324265	0	0	0	0	0.8089	0	0.745900015	0	0	0
1.025	-5.332153238	653.926027	29.77952279	0.7531445834345099	0	0.4098637545622854	0	1.797536044345214	0	0	0	0	0.8089	0	0.745900015	0	0	0
1.03	-2.957494834	657.5194873	29.70087403	0.7478749891385191	0	0.4102095346726813	0	1.709439228545647	0	0	0	0	0.8089	0	0.745900015	0	0	0
1.035	-0.550218617	660.7349107	29.52783291	0.7427112588995113	0	0.4105299892900445	0	1.633668995858908	0	0	0	0	0.8089	0	0.745900015	0	0	0
1.04	1.781296662	663.67074	29.2546825	0.7375888978877561	0	0.4108087566920305	0	1.578329524513041	0	0	0	0	0.8089	0	0.745900015	0	0	0
1.045	4.18453878	666.182685	28.99084769	0.7323876887745668	0	0.411082533115201	0	1.499407776194298	0	0	0	0	0.8089	0	0.745900015	0	0	0
1.05	6.815056042	668.1460742	28.83928432	0.727079595217249	0	0.4113772359711457	0	1.369533803140328	0	0	0	0	0.8089	0	0.745900015	0	0	0
1.055	9.552865202	669.6892018	28.81222796	0.7217153418458078	0	0.4116734829638822	0	1.218562889000368	0	0	0	0	0.8089	0	0.745900015	0	0	0
1.06	12.26457118	671.0152251	28.8076858	0.7163595991198095	0	0.4119374146444813	0	1.098816434710683	0	0	0	0	0.8089	0	0.745900015	0	0	0
1.065	15.08802821	672.0822061	28.77013953	0.7109803847677705	0	0.4121999043062791	0	1.004908297271501	0	0	0	0	0.8089	0	0.745900015	0	0	0
1.07	18.18928893	672.8074317000001	28.78976065	0.7054434949672865	0	0.4124912411607315	0	0.8950741110244826	0	0	0	0	0.8089	0	0.745900015	0	0	0
1.075	21.49151254	673.3529453	28.9990668	0.6997707815015723	0	0.4127730943659337	0	0.7680597387569339	0	0	0	0	0.8089	0	0.745900015	0	0	0
1.08	24.79579945	673.9691693	29.40016704	0.694100959772714	0	0.4130024527743139	0	0.6507255890098773	0	0	0	0	0.8089	0	0.745900015	0	0	0
1.085	28.06440679	674.7029042	29.85751474	0.6884556872931316	0	0.4132001828117162	0	0.5622777255610392	0	0	0	0	0.8089	0	0.745900015	0	0	0
1.09	31.40964374	675.4869227	30.27205599	0.682669347925833	0	0.4134137218999964	0	0.4815355553658511	0	0	0	0	0.8089	0	0.745900015	0	0	0
1.095	34.86678897	676.3729123000001	30.69491316	0.6766721105237608	0	0.4136471847128493	0	0.3744168329409741	0	0	0	0	0.8089	0	0.745900015	0	0	0
1.1	38.31004057	677.5257824	31.22111938	0.6706542725585789	0	0.4138650193204925	0	0.2446700322829072	0	0	0	0	0.8089	0	0.745900015	0	0	0
1.105	41.60708482	678.9702903	31.81113959	0.6648351958897369	0	0.4140620050387682	0	0.1288350229902706	0	0	0	0	0.8089	0	0.745900015	0	0	0
1.11	44.76647202	680.5861976	32.31651906	0.6591467490074521	0	0.4142689285616721	0	0.05302132182861286	0	0	0	0	0.8089	0	0.745900015	0	0	0
1.115	47.92789168	682.2862694	32.65170722	0.6534069746310656	0	0.4144967835586411	0	0.01072836152645262	0	0	0	0	0.8089	0	0.745900015	0	0	0
1.12	51.19376664	684.0154443	32.86354813	0.6476787579918856	0	0.4147266959395174	0	-0.03169053036821889	0	0	0	0	0.8089	0	0.745900015	0	0	0
1.125	54.49384678	685.617417	33.04535639	0.6421974851399516	0	0.4149466071616041	0	-0.07989277472323408	0	0	0	0	0.8089	0	0.745900015	0	0	0
1.13	57.70126049	686.9582948	33.25696683	0.6369237317202064	0	0.4151545283352701	0	-0.113127711397226	0	0	0	0	0.8089	0	0.745900015	0	0	0
1.135	60.93034991	688.0167272	33.47417025	0.6316260158662159	0	0.415342000790385	0	-0.1418739602739807	0	0	0	0	0.8089	0	0.745900015	0	0	0
1.14	64.42128375999999	688.7501981	33.63076187	0.6262025835665861	0	0.4155064134986093	0	-0.1747549628418401	0	0	0	0	0.8089	0	0.745900015	0	0	0
1.145	68.1414161	689.0263399	33.74276028	0.6207560589656703	0	0.4156570221847017	0	-0.1900535238047727	0	0	0	0	0.8089	0	0.745900015	0	0	0
1.15	71.86091675	688.7778577	33.93833672	0.6154002635782959	0	0.4157872797273908	0	-0.1792770379351243	0	0	0	0	0.8089	0	0.745900015	0	0	0
1.155	75.59211510999999	688.021595	34.31636874	0.6101285959379903	0	0.4158852840077876	0	-0.1613382099018823	0	0	0	0	0.8089	0	0.745900015	0	0	0
1.16	79.54781832	686.7340507	34.80614377	0.6048392470841177	0	0.4159640724574519	0	-0.1574382000525008	0	0	0	0	0.8089	0	0.745900015	0	0	0
1.165	83.70456003	684.8260992	35.23806158	0.5994374734381926	0	0.4160498924604386	0	-0.1400246091028094	0	0	0	0	0.8089	0	0.745900015	0	0	0
1.17	87.82126461999999	682.3000383	35.56154981	0.5939872745595229	0	0.4161426777994459	0	-0.06303793343189845	0	0	0	0	0.8089	0	0.745900015	0	0	0
1.175	91.85005888000001	679.2704355	35.87225222	0.5886958290614366	0	0.416212976348998	0	0.03437632727434359	0	0	0	0	0.8089	0	0.745900015	0	0	0
1.18	95.90423232000001	675.7419701	36.23283329	0.5834908083864733	0	0.4162651354059247	0	0.09697468674065135	0	0	0	0	0.8089	0	0.745900015	0	0	0
1.185	100.0155431	671.5541522	36.55416484	0.5780887310038002	0	0.4163619200668595	0	0.1260552104146786	0	0	0	0	0.8089	0	0.745900015	0	0	0
1.19	104.1470685	666.6903234	36.67187263	0.5724980166561517	0	0.4165186697514091	0	0.1438129460538438	0	0	0	0	0.8089	0	0.745900015	0	0	0
1.195	108.2770985	661.2822362000001	36.56922107	0.5670025980316468	0	0.4166981007612038	0	0.1611822286240852	0	-0.17649505	15.92854805	-1.661531163	0.9669117129382674	0	0.5417925216619616	0	-0.2425513304080134	0
1.2	112.3611479	655.323275	36.33850031	0.5616496089107096	0	0.4168719558100796	0	0.1506356842104211	0	3.843331458	33.15581986	-0.239216521	0.9539087813633089	0	0.5373749211494027	0	-0.1807901632137772	0
1.205	116.4006026	648.5478193	36.01941334	0.5562540328412273	0	0.4170726895017622	0	0.08224708395553826	0	9.090889494000001	58.20724388	2.835277187	0.9491902439056352	0	0.5371794694086907	0	-0.06173445579770381	0
1.21	120.4601419	640.729654	35.46562647	0.5508254104889008	0	0.4172869818155421	0	-0.005009862107227647	0	14.55559353	91.82018336	7.965922643	0.9472815498405469	0	0.5387061633452912	0	0.09733938784930563	0
1.215	124.483668	631.6516927	34.54419265	0.5455505417500621	0	0.4174877249738487	0	-0.06140977765064193	0	18.56030491	133.0071156	15.0850859	0.9450900227539405	0	0.5402138241778903	0	0.3041727974009474	0
1.22	128.2764615	620.886312	33.28144186	0.5405084807021645	0	0.4176823852816233	0	-0.08499369686962943	0	19.15940113	179.2711211	23.46782653	0.9422771299765693	0	0.5411207356339605	0	0.4671169358456764	0
1.225	131.7092348	607.8243255	31.77540265	0.5356469385228794	0	0.4178953900777778	0	-0.1113639005746645	0	15.17792897	227.6109607	31.86269171	0.9399901010137514	0	0.5417763045815149	0	0.4533362026585355	0
1.23	134.6866369	592.0092835	30.09186671	0.5309152731244695	0	0.4181407018423509	0	-0.2003465532898936	0	6.793864286	275.0811142	38.91146898	0.9388144305632596	0	0.5424956228710692	0	0.3255327592169257	0
1.235	136.936014	573.2978866	28.10810056	0.5263901496496693	0	0.4183558729203118	0	-0.3185288806547044	0	-4.535157857	319.0027569	43.5819444	0.938305275619422	0	0.5431811274003173	0	0.1277090612523271	0
1.24	138.0149531	551.494051	25.68749755	0.5221002210751861	0	0.4185354360197125	0	-0.3900942027747387	0	-16.53492882	357.7249564	45.45367295	0.9379467278396458	0	0.5437974142545297	0	-0.1135124891723081	0
1.245	137.60136	526.4367998	22.83860226	0.5180702007036457	0	0.4186987333718896	0	-0.4298719502318908	0	-27.27989569	390.9930456	44.5725781	0.9373553490022483	0	0.5444955589459101	0	-0.2513427728912934	0
1.25	135.5195408	498.3152293	19.7194631	0.5143641744014295	0	0.4188218267484899	0	-0.4822015098482382	0	-36.17800126	419.199026	41.33080348	0.9363212288126833	0	0.5455323376667039	0	-0.2665956977901285	0
1.255	131.5432165	467.6159222	16.45615961	0.5109606781310192	0	0.4188651814756637	0	-0.5463599567761399	0	-43.5679008	442.2898415	35.89052515	0.9348763508495593	0	0.5468084106317816	0	-0.2737007607560491	0
1.26	125.5246817	434.8656009	13.02439946	0.5078302055947757	0	0.4188315488895096	0	-0.5723418925568069	0	-49.56767869	460.3287176	28.02220204	0.9329360088062426	0	0.5481233598422164	0	-0.2614358152401999	0
1.265	117.6541897	400.5499013	9.423523027	0.5050473551224501	0	0.4187735492669592	0	-0.5142021603874065	0	-53.95971286	474.5830486	17.67156909	0.9300954712872144	0	0.54948419935934	0	-0.2113553188855914	0
1.27	108.3862799	365.3486823	5.8563874	0.5027365286417008	0	0.4186684083472585	0	-0.4188325073852952	0	-57.04141039	487.3713294	5.658509464	0.9262875428627131	0	0.5509570252944591	0	-0.07393679620293803	0
1.275	98.22031945000001	330.0486662	2.65871826	0.5009063150725546	0	0.4184378011915456	0	-0.3403717337362075	0	-59.85232453	501.1946421	-6.458343683	0.9221712127809875	0	0.5525310602284064	0	0.1543743434538459	0
